# xmcd
#
# Track frame offsets:
# 150
# 12723
# 22541
# 43570
# 58437
# 69729
# 87006
# 106252
# 123955
# 133899
# 148547
# 168761
# 183884
# 195967
# 208737
# 221764
#
# Disc length: 3135 seconds
#
#
# Revision: 0
# Processed by: cddbd v1.5.2PL0 Copyright (c) Steve Scherf et al.
# Submitted via: Nero 7, 2, 0, 3 
#
DISCID=e00c3d10
DTITLE=Rex Allen - Voice of the West
DYEAR=2008
DGENRE=Country
TTITLE0=Voice of the West
TTITLE1=Voice of the West
TTITLE2=Voice of the West
TTITLE3=Voice of the West
TTITLE4=Voice of the West
TTITLE5=Voice of the West
TTITLE6=Voice of the West
TTITLE7=Voice of the West
TTITLE8=Voice of the West
TTITLE9=Voice of the West
TTITLE10=Voice of the West
TTITLE11=Voice of the West
TTITLE12=Voice of the West
TTITLE13=Voice of the West
TTITLE14=Voice of the West
TTITLE15=Voice of the West
EXTD=
EXTT0=
EXTT1=
EXTT2=
EXTT3=
EXTT4=
EXTT5=
EXTT6=
EXTT7=
EXTT8=
EXTT9=
EXTT10=
EXTT11=
EXTT12=
EXTT13=
EXTT14=
EXTT15=
PLAYORDER=
